<svg width="158" height="40" viewBox="0 0 158 40" fill="none" xmlns="http://www.w3.org/2000/svg">
<g clip-path="url(#clip0_281_3758)">
<path d="M153.979 10.6491C152.602 9.46409 150.966 8.6198 149.203 8.18449C147.439 7.74918 145.598 7.73507 143.828 8.1433C142.058 8.55153 140.409 9.37064 139.014 10.5344C137.62 11.6981 136.519 13.1737 135.8 14.842C135.082 16.5102 134.766 18.3241 134.878 20.137C134.991 21.9499 135.528 23.7109 136.448 25.2774C137.367 26.844 138.642 28.1722 140.17 29.1545C141.698 30.1369 143.436 30.7458 145.242 30.9321C145.636 30.9719 146.031 30.9918 146.427 30.9919C147.184 30.9924 147.94 30.9185 148.683 30.7712C149.569 30.5961 150.431 30.3173 151.251 29.9405C152.238 29.4873 153.156 28.8976 153.978 28.1889V33.0515C153.978 33.8839 153.647 34.6821 153.059 35.2707C152.47 35.8593 151.672 36.1899 150.839 36.1899H139.169V39.7207H151.429C152.292 39.7214 153.147 39.552 153.944 39.222C154.742 38.8921 155.467 38.4081 156.077 37.7978C156.687 37.1874 157.171 36.4627 157.501 35.6651C157.831 34.8676 158.001 34.0127 158 33.1496V19.419C158.002 17.7537 157.643 16.1077 156.949 14.5939C156.255 13.0801 155.242 11.7344 153.979 10.6491ZM153.979 21.1137C153.533 23.0685 152.357 24.7785 150.69 25.8928C149.023 27.0071 146.993 27.4412 145.017 27.1058C143.04 26.7705 141.267 25.6913 140.061 24.0896C138.855 22.488 138.308 20.4855 138.532 18.4933C138.756 16.501 139.734 14.6701 141.266 13.3764C142.798 12.0827 144.766 11.4244 146.768 11.5365C148.77 11.6487 150.653 12.5229 152.03 13.9796C153.407 15.4364 154.175 17.3651 154.175 19.3699C154.175 19.9567 154.11 20.5417 153.979 21.1137Z" fill="#38539A"/>
<path d="M120.339 7.84607C118.05 7.84607 115.812 8.52481 113.909 9.79646C112.006 11.0681 110.523 12.8756 109.647 14.9902C108.771 17.1049 108.542 19.4318 108.988 21.6768C109.435 23.9217 110.537 25.9838 112.156 27.6023C113.774 29.2208 115.836 30.323 118.081 30.7696C120.326 31.2161 122.653 30.9869 124.768 30.111C126.882 29.2351 128.69 27.7517 129.961 25.8486C131.233 23.9454 131.912 21.7079 131.912 19.419C131.912 16.3497 130.693 13.4061 128.522 11.2357C126.352 9.06536 123.408 7.84607 120.339 7.84607ZM120.388 27.216C118.846 27.216 117.338 26.7587 116.056 25.902C114.774 25.0452 113.775 23.8275 113.184 22.4028C112.594 20.9781 112.44 19.4104 112.741 17.8979C113.042 16.3854 113.784 14.9961 114.875 13.9057C115.965 12.8152 117.354 12.0727 118.867 11.7718C120.379 11.471 121.947 11.6254 123.372 12.2155C124.796 12.8056 126.014 13.805 126.871 15.0872C127.728 16.3694 128.185 17.8769 128.185 19.419C128.185 20.4429 127.983 21.4568 127.591 22.4028C127.2 23.3488 126.625 24.2083 125.901 24.9323C125.177 25.6564 124.318 26.2307 123.372 26.6225C122.426 27.0143 121.412 27.216 120.388 27.216Z" fill="#38539A"/>
<path d="M105.922 0H101.901V30.9919H105.922V0Z" fill="#38539A"/>
<path d="M97.9482 18.2421C97.7913 15.7235 97.0018 13.1422 95.6238 11.3768C93.681 8.88371 90.6406 7.84607 87.3855 7.84607C81.8265 7.84607 77.268 12.3772 76.8286 18.2421C76.8051 18.5487 76.7933 18.8593 76.7933 19.1738C76.7916 19.7798 76.822 20.3855 76.8845 20.9882C77.0689 22.7222 77.5485 24.3051 78.4606 25.6959C78.8547 26.2958 79.3085 26.8544 79.815 27.3631C80.4127 27.9638 81.0771 28.4942 81.7952 28.9441C82.6406 29.477 83.555 29.8918 84.5128 30.1769C85.8259 30.6562 87.2136 30.8989 88.6114 30.8939H95.2315V27.4612C94.802 27.4465 94.0948 27.4269 93.2151 27.4298C92.0039 27.4298 91.6557 27.472 90.5239 27.4612C89.5706 27.4524 89.0125 27.4455 88.2682 27.3631C87.765 27.3072 86.9127 27.2141 86.1105 26.9708C85.6025 26.8169 83.1329 26.0028 81.7952 23.5382C81.3699 22.7475 81.1034 21.8812 81.0105 20.9882H97.8443C97.8766 20.7744 97.9021 20.5577 97.9237 20.3399C97.959 19.9561 97.977 19.5674 97.9776 19.1738C97.9776 18.8646 97.9678 18.554 97.9482 18.2421ZM93.9369 18.3402H81.0105C81.028 17.0331 81.3922 15.7541 82.0658 14.6339C82.6254 13.7306 83.3685 12.9551 84.247 12.3576C85.2308 11.683 86.3891 11.3082 87.5816 11.2787C87.647 11.2787 87.7098 11.2787 87.7699 11.2787C89.0865 11.3083 90.3598 11.7547 91.4066 12.5537C92.6164 13.4908 93.4686 14.8141 93.8212 16.3031C93.9777 16.9703 94.0169 17.6596 93.9369 18.3402Z" fill="#38539A"/>
<path d="M21.0863 19.37V30.9919H15.2998V19.37C15.2998 18.1084 14.7987 16.8985 13.9066 16.0065C13.0146 15.1144 11.8047 14.6133 10.5431 14.6133C9.28159 14.6133 8.07171 15.1144 7.17967 16.0065C6.28762 16.8985 5.78647 18.1084 5.78647 19.37V30.9919H0V19.37C0 16.5737 1.11079 13.892 3.08801 11.9148C5.06524 9.9376 7.74693 8.82681 10.5431 8.82681C13.3394 8.82681 16.021 9.9376 17.9983 11.9148C19.9755 13.892 21.0863 16.5737 21.0863 19.37Z" fill="black"/>
<path d="M66.5934 0V10.0116C64.6566 8.97066 62.4558 8.52397 60.2664 8.72736C58.077 8.93075 55.9962 9.7752 54.2842 11.1551C52.5723 12.5349 51.3052 14.389 50.6415 16.4852C49.9778 18.5815 49.9469 20.8269 50.5527 22.9407C51.1586 25.0544 52.3742 26.9425 54.0476 28.3689C55.721 29.7953 57.7778 30.6966 59.9608 30.9601C62.1438 31.2236 64.356 30.8376 66.3207 29.8503C68.2855 28.863 69.9155 27.3183 71.0068 25.4095C71.4061 24.719 71.7268 23.9861 71.9631 23.2243C72.2504 22.256 72.3909 21.2499 72.3799 20.2399C72.3799 17.9116 72.4142 10.3117 72.3799 0H66.5934ZM66.5934 22.4152C65.9658 23.7054 64.8852 24.7194 63.5578 25.2639C62.2304 25.8083 60.749 25.8451 59.3961 25.3673C58.0433 24.8894 56.9137 23.9302 56.2228 22.6728C55.5319 21.4154 55.328 19.9476 55.6501 18.5495C55.9721 17.1513 56.7975 15.9206 57.9689 15.0921C59.1402 14.2636 60.5756 13.8953 62.0011 14.0573C63.4267 14.2194 64.7427 14.9005 65.6982 15.9708C66.6538 17.041 67.1819 18.4256 67.1819 19.8603C67.1821 20.7456 66.9808 21.6193 66.5934 22.4152Z" fill="black"/>
<path d="M40.8976 0V10.0116C38.9607 8.97066 36.76 8.52397 34.5706 8.72736C32.3812 8.93075 30.3003 9.7752 28.5884 11.1551C26.8764 12.5349 25.6093 14.389 24.9456 16.4852C24.2819 18.5815 24.2511 20.8269 24.8569 22.9407C25.4628 25.0544 26.6784 26.9425 28.3518 28.3689C30.0252 29.7953 32.082 30.6966 34.265 30.9601C36.448 31.2236 38.6602 30.8376 40.6249 29.8503C42.5896 28.863 44.2196 27.3183 45.311 25.4095C45.7102 24.719 46.031 23.9861 46.2672 23.2243C46.5546 22.256 46.6951 21.2499 46.684 20.2399C46.684 17.9116 46.7184 10.3117 46.684 0H40.8976ZM40.8976 22.4152C40.27 23.7054 39.1894 24.7194 37.862 25.2639C36.5345 25.8083 35.0531 25.8451 33.7003 25.3673C32.3475 24.8894 31.2179 23.9302 30.527 22.6728C29.8361 21.4154 29.6322 19.9476 29.9542 18.5495C30.2763 17.1513 31.1017 15.9206 32.273 15.0921C33.4444 14.2636 34.8797 13.8953 36.3053 14.0573C37.7308 14.2194 39.0469 14.9005 40.0024 15.9708C40.9579 17.041 41.486 18.4256 41.486 19.8603C41.4862 20.7456 41.285 21.6193 40.8976 22.4152Z" fill="black"/>
</g>
<defs>
<clipPath id="clip0_281_3758">
<rect width="158" height="39.7207" fill="white"/>
</clipPath>
</defs>
</svg>
